<?xml version="1.0" standalone="no"?>
<!DOCTYPE svg PUBLIC "-//W3C//DTD SVG 20010904//EN"
 "http://www.w3.org/TR/2001/REC-SVG-20010904/DTD/svg10.dtd">
<svg version="1.0" xmlns="http://www.w3.org/2000/svg"
 width="300.000000pt" height="300.000000pt" viewBox="0 0 300.000000 300.000000"
 preserveAspectRatio="xMidYMid meet">
<metadata>
Created by potrace 1.11, written by Peter Selinger 2001-2013
</metadata>
<g transform="translate(0.000000,300.000000) scale(0.100000,-0.100000)"
fill="#000000" stroke="none">
<path d="M0 1500 l0 -1500 1500 0 1500 0 0 1500 0 1500 -1500 0 -1500 0 0
-1500z m1859 755 c37 -19 41 -31 41 -125 l0 -77 113 -6 c61 -3 129 -11 151
-18 52 -18 129 -89 158 -147 22 -46 23 -54 23 -337 0 -276 -1 -292 -22 -337
-36 -80 -85 -116 -259 -194 l-159 -72 -3 -78 c-3 -106 -7 -121 -42 -139 -26
-14 -94 -15 -525 -13 l-494 3 -23 23 -23 23 -2 717 c-3 768 -4 753 47 779 40
20 981 18 1019 -2z"/>
<path d="M1146 1914 c-14 -13 -16 -66 -16 -424 0 -444 0 -440 55 -440 54 0 55
10 55 440 0 342 -2 399 -16 418 -18 26 -56 29 -78 6z"/>
<path d="M1477 1912 c-15 -17 -17 -61 -17 -424 0 -380 1 -406 18 -421 24 -22
55 -21 75 1 15 17 17 61 17 424 0 380 -1 406 -18 421 -24 22 -55 21 -75 -1z"/>
<path d="M1900 1505 c0 -173 2 -315 3 -315 15 0 202 91 208 102 5 7 9 122 9
255 0 206 -2 244 -16 257 -12 12 -37 16 -110 16 l-94 0 0 -315z"/>
</g>
</svg>
